# xmcd
#
# Track frame offsets:
#	150
#	24760
#	36967
#	59282
#	74745
#	94190
#	107697
#	130325
#	160672
#	172852
#	188087
#	212512
#	225217
#	244405
#	276185
#	302160
#
# Disc length: 4245 seconds
# Revision: 0
# Processed by: cddbd v1.5.2PL0 Copyright (c) Steve Scherf et al.
# Submitted via: dBpowerAMP V12.0
#
DISCID=d3109310
DTITLE=Steve Earle - The art of zen mandolin - Unplugged in Copenhagen [Disc 1]
DYEAR=1999
DGENRE=Country
TTITLE0=Xmas in Washington
TTITLE1=You Know the Rest
TTITLE2=Angry Young Man
TTITLE3=South Nashville Blues
TTITLE4=Cckmp
TTITLE5=My Old Friend the Blues
TTITLE6=Someday
TTITLE7=Tom Ames' Prayer
TTITLE8=Hometown Blues
TTITLE9=Devil's Right Hand
TTITLE10=Goodbye
TTITLE11=Outlaws' Honeymoon
TTITLE12=New York City
TTITLE13=Somewhere Out There
TTITLE14=Little Rock N' Roller
TTITLE15=Regular Guy
EXTD=
EXTT0=
EXTT1=
EXTT2=
EXTT3=
EXTT4=
EXTT5=
EXTT6=
EXTT7=
EXTT8=
EXTT9=
EXTT10=
EXTT11=
EXTT12=
EXTT13=
EXTT14=
EXTT15=
PLAYORDER=
